HIERARCHY
ROOT ui
{
	 OFFSET 0 0 0
	 CHANNELS 3 XPosition YPosition Z Position
	 EndSite
	 {
	 OFFSET 0 -1 0
	 }
}
ROOT li
{
	 OFFSET 0 0 0
	 CHANNELS 3 XPosition YPosition Z Position
	 EndSite
	 {
	 OFFSET 0 -1 0
	 }
}
ROOT ul
{
	 OFFSET 0 0 0
	 CHANNELS 3 XPosition YPosition Z Position
	 EndSite
	 {
	 OFFSET 0 -1 0
	 }
}
ROOT ll
{
	 OFFSET 0 0 0
	 CHANNELS 3 XPosition YPosition Z Position
	 EndSite
	 {
	 OFFSET 0 -1 0
	 }
}
ROOT tt
{
	 OFFSET 0 0 0
	 CHANNELS 3 XPosition YPosition Z Position
	 EndSite
	 {
	 OFFSET 0 -1 0
	 }
}
ROOT tb
{
	 OFFSET 0 0 0
	 CHANNELS 3 XPosition YPosition Z Position
	 EndSite
	 {
	 OFFSET 0 -1 0
	 }
}
ROOT td
{
	 OFFSET 0 0 0
	 CHANNELS 3 XPosition YPosition Z Position
	 EndSite
	 {
	 OFFSET 0 -1 0
	 }
}
ROOT v
{
	 OFFSET 0 0 0
	 CHANNELS 3 XPosition YPosition Z Position
	 EndSite
	 {
	 OFFSET 0 -1 0
	 }
}
ROOT bn
{
	 OFFSET 0 0 0
	 CHANNELS 3 XPosition YPosition Z Position
	 EndSite
	 {
	 OFFSET 0 -1 0
	 }
}
MOTION
Frames: 27
Frame Time: 0.002
0.0013119410276412964	-1.8916999921202658E-5	0		0.4897523498535156	-2.371210693359375	0		-1.14616552734375	-0.04012338256835937	0		-0.6172171630859375	-2.844758544921875	0		1.6015113525390625	-0.7606515502929687	0		3.219148193359375	-0.22539535522460938	0		4.8128056640625	0.11909922027587891	0		5.70686474609375	0.3729687194824219	0		-0.421037109375	5.8516748046875	0		
-0.00952381706237793	0.016343111038208007	0		0.4925626525878906	-2.36704150390625	0		-1.1461837158203125	-0.0407653923034668	0		-0.6124524536132813	-2.84050390625	0		1.6044656982421874	-0.7575889282226562	0		3.213185791015625	-0.21939398193359375	0		4.81992822265625	0.1298113250732422	0		5.71745166015625	0.3479663391113281	0		-0.4195002136230469	5.84995263671875	0		
0.008423439979553223	0.00539215087890625	0		0.49615869140625	-2.3888935546875	0		-1.1380618896484376	-0.03449921035766602	0		-0.6096390991210937	-2.837237548828125	0		1.6044429931640625	-0.7585099487304687	0		3.222289794921875	-0.21356964111328125	0		4.8199931640625	0.12857215881347656	0		5.7097958984375	0.3822040710449219	0		-0.42369989013671877	5.86528369140625	0		
0.008548076629638673	0.004625597953796387	0		0.5192354736328125	-2.371955078125	0		-1.146015380859375	-0.042065860748291016	0		-0.5877561645507813	-2.83417724609375	0		1.6014490966796875	-0.7634032592773438	0		3.21737158203125	-0.2166029052734375	0		4.8201298828125	0.1273263168334961	0		5.70988037109375	0.379902099609375	0		-0.2698296203613281	5.878927734375	0		
-0.013174203872680664	0.011096888542175293	0		0.49020474243164064	-2.372458251953125	0		-1.14581884765625	-0.042717464447021486	0		-0.5558896484375	-2.840227783203125	0		1.5964996337890625	-0.7712706298828125	0		3.231550048828125	-0.21783390808105468	0		4.81627880859375	0.12013187408447265	0		5.7041982421875	0.3518164367675781	0		-0.40425872802734375	5.85964404296875	0		
0.005987829208374024	-8.670070171356201E-4	0		0.5429310302734375	-2.403838134765625	0		-1.14554150390625	-0.04336766052246094	0		-0.6238099975585938	-2.834196533203125	0		1.5967076416015624	-0.7721824951171875	0		3.208833984375	-0.21665219116210938	0		4.81657177734375	0.11891279602050782	0		5.70439404296875	0.349567626953125	0		-0.2842948303222656	5.86963037109375	0		
0.009398080825805665	0.0023463099002838136	0		0.4962115173339844	-2.392126953125	0		-1.1371025390625	-0.03710367202758789	0		-0.5737718505859375	-2.841439453125	0		1.6000361328125	-0.770114990234375	0		3.2091806640625	-0.21769947814941407	0		4.81694921875	0.11771807861328125	0		5.71233203125	0.3108302307128906	0		-0.42046923828125	5.86240380859375	0		
0.012886811256408691	0.004566504955291748	0		0.5504213256835937	-2.396511962890625	0		-1.1326063232421875	-0.033794212341308597	0		-0.6133638916015625	-2.8236943359375	0		1.6024683837890625	-0.7670230712890626	0		3.23554931640625	-0.2250126495361328	0		4.8155478515625	0.12857208251953126	0		5.71499462890625	0.353600830078125	0		-0.4185226135253906	5.85968408203125	0		
0.01040015983581543	8.608859777450562E-4	0		0.4930389709472656	-2.37265234375	0		-1.1501285400390624	-0.04023776626586914	0		-0.5481673583984376	-2.835103759765625	0		1.5909404296875	-0.7687606811523438	0		3.22819970703125	-0.2149310760498047	0		4.82203759765625	0.12136786651611328	0		5.708263671875	0.3551605529785156	0		-0.4005133056640625	5.8567919921875	0		
0.011035850524902344	1.292089968919754E-4	0		0.5184320678710937	-2.378701171875	0		-1.14949609375	-0.04087896347045898	0		-0.6166812744140625	-2.82901953125	0		1.5954039306640626	-0.7796597290039062	0		3.213819580078125	-0.21574568176269532	0		4.81370556640625	0.12236170196533203	0		5.70288818359375	0.327338134765625	0		-0.3994210510253906	5.85609228515625	0		
0.011757099151611328	-5.960040092468262E-4	0		0.49200570678710936	-2.377158935546875	0		-1.14877783203125	-0.04152033615112305	0		-0.5492588500976563	-2.8384541015625	0		1.59606884765625	-0.7804993896484375	0		3.231388916015625	-0.22889308166503905	0		4.81934521484375	0.11323369598388672	0		5.70339697265625	0.3253773193359375	0		-0.2640486145019531	5.87488525390625	0		
0.009512121200561524	-0.005281270980834961	0		0.52338623046875	-2.401260009765625	0		-1.1379923095703126	-0.043276531219482425	0		-0.6464697265625	-2.823026611328125	0		1.5998626708984376	-0.7773577880859375	0		3.2171748046875	-0.2296551513671875	0		4.82015283203125	0.11219674682617188	0		5.7039638671875	0.3234871520996094	0		-0.41603204345703126	5.8599189453125	0		
0.0026215550899505616	0.015094207763671876	0		0.4994565734863281	-2.37172216796875	0		-1.129045654296875	-0.037014076232910156	0		-0.5728069458007813	-2.827533447265625	0		1.600686279296875	-0.7781668701171875	0		3.21616796875	-0.2185386199951172	0		4.82018896484375	0.1252062301635742	0		5.70458056640625	0.32166851806640623	0		-0.4138243408203125	5.85821875	0		
0.01435525608062744	-0.002740510940551758	0		0.496213623046875	-2.376412353515625	0		-1.142141357421875	-0.039503627777099606	0		-0.6080147094726562	-2.82680078125	0		1.5985277099609374	-0.7829268798828125	0		3.231980712890625	-0.22858990478515626	0		4.82196337890625	0.11023056030273437	0		5.7052392578125	0.31992153930664063	0		-0.39463272094726565	5.8533251953125	0		
0.015328056335449218	-0.0034488329887390136	0		0.49504287719726564	-2.38011962890625	0		-1.1452159423828125	-0.044112518310546876	0		-0.5392452392578125	-2.83426171875	0		1.5964188232421874	-0.7876732788085937	0		3.24202294921875	-0.2225501251220703	0		4.82294140625	0.10930111694335938	0		5.70173291015625	0.3356647033691406	0		-0.260135009765625	5.87410546875	0		
-0.04173536682128906	-0.009487812995910644	0		0.4699891662597656	-2.377546630859375	0		-1.215257080078125	-0.04795680618286133	0		-0.6412306518554688	-2.82376123046875	0		1.597390380859375	-0.7884427490234375	0		3.215983642578125	-0.2260716552734375	0		4.81597119140625	0.11049896240234375	0		5.7037314453125	0.3046136474609375	0		-0.4072763977050781	5.84211669921875	0		
0.017345403671264647	-0.004866455078125	0		0.53653271484375	-2.41303125	0		-1.1291793212890624	-0.04361091613769531	0		-0.6002830810546875	-2.822912841796875	0		1.604473388671875	-0.7812715454101562	0		3.220049560546875	-0.221916259765625	0		4.81987451171875	0.09960526275634765	0		5.704453125	0.3030805358886719	0		-0.3909632568359375	5.85124658203125	0		
0.025440649032592775	0.001341771960258484	0		0.533663818359375	-2.39870849609375	0		-1.1241195068359375	-0.040340309143066404	0		-0.5942666625976563	-2.81766650390625	0		1.6054693603515624	-0.7820196533203125	0		3.25891748046875	-0.23514254760742187	0		4.82005419921875	0.1127908935546875	0		5.7080869140625	0.3136473388671875	0		-0.4067843017578125	5.8527431640625	0		
0.0045219769477844235	0.00788663101196289	0		0.5278094482421875	-2.3833466796875	0		-1.137143798828125	-0.04286894607543945	0		-0.53730615234375	-2.818016357421875	0		1.6034090576171875	-0.7867202758789062	0		3.22611181640625	-0.2185117950439453	0		4.82614697265625	0.11994425201416016	0		5.7016904296875	0.31765045166015626	0		-0.25448004150390624	5.86928662109375	0		
-0.05665975570678711	-0.005100797176361084	0		0.5017908630371094	-2.380745849609375	0		-1.1402254638671876	-0.047520820617675784	0		-0.5723510131835937	-2.817302001953125	0		1.601321044921875	-0.791406982421875	0		3.224877685546875	-0.2362230224609375	0		4.824880859375	0.09921965789794922	0		5.69945849609375	0.30258343505859375	0		-0.3876884765625	5.85013818359375	0		
0.0181920223236084	-0.011665902137756347	0		0.5553402709960937	-2.41306591796875	0		-1.1393106689453125	-0.04822603607177734	0		-0.6043781127929687	-2.812624755859375	0		1.6022353515625	-0.7921143798828125	0		3.22985009765625	-0.2319784393310547	0		4.8257958984375	0.09850978088378906	0		5.7035947265625	0.2839549255371094	0		-0.2676493530273438	5.85904931640625	0		
-0.06669403839111328	0.010628291130065918	0		0.5073278503417968	-2.40319677734375	0		-1.1303768310546876	-0.04202930450439453	0		-0.5984496459960937	-2.8083896484375	0		1.606139404296875	-0.788841796875	0		3.230704345703125	-0.23266033935546876	0		4.8207177734375	0.10390737152099609	0		5.70420263671875	0.2828022766113281	0		-0.420021240234375	5.8431220703125	0		
0.020968297958374023	-0.00107771897315979	0		0.506409912109375	-2.38086572265625	0		-1.129592041015625	-0.04274103546142578	0		-0.5935830688476562	-2.80514111328125	0		1.606933837890625	-0.7895182495117188	0		3.229630859375	-0.22129344177246094	0		4.8305	0.10316805267333984	0		5.69708349609375	0.3165408935546875	0		-0.3711300964355469	5.85786181640625	0		
0.012787036895751953	0.007336326122283935	0		0.5051453857421875	-2.38352294921875	0		-1.1398533935546875	-0.04132490158081055	0		-0.5588536376953125	-2.809235595703125	0		1.604616455078125	-0.79414306640625	0		3.235267578125	-0.22898033142089844	0		4.83121240234375	0.10256851959228516	0		5.69759423828125	0.31553033447265627	0		-0.38464056396484375	5.84732763671875	0		
0.009395217895507813	0.0037012009620666503	0		0.5328088989257812	-2.38750439453125	0		-1.143255615234375	-0.04598763656616211	0		-0.601978759765625	-2.79542333984375	0		1.5993594970703124	-0.7877175903320313	0		3.2309970703125	-0.22252719116210937	0		4.8238759765625	0.104094970703125	0		5.6951435546875	0.302556396484375	0		-0.26600750732421874	5.85727294921875	0		
-0.05218113327026367	-0.009257048606872558	0		0.5044488830566406	-2.38782861328125	0		-1.1426849365234375	-0.046694278717041016	0		-0.5653428955078125	-2.797529296875	0		1.5999515380859375	-0.7883453369140625	0		3.227515380859375	-0.2280616455078125	0		4.82935009765625	0.09550279998779297	0		5.69555224609375	0.30167178344726564	0		-0.40082794189453125	5.8381484375	0		
0.025297452926635742	-0.011809157371520997	0		0.536778564453125	-2.40984423828125	0		-1.12716650390625	-0.04556994247436524	0		-0.616718505859375	-2.7946162109375	0		1.6094371337890625	-0.7920618896484375	0		3.232074951171875	-0.22366798400878907	0		4.829841796875	0.0949952163696289	0		5.7001044921875	0.28342208862304685	0		-0.4175002136230469	5.83966455078125	0		
